<?xml version="1.0" encoding="UTF-8" standalone="no"?>
<svg width="1248" height="765" viewBox="0 0 1248 765" fill="none" xmlns="http://www.w3.org/2000/svg">
  <!-- Background -->
  <rect width="1248" height="765" fill="#1a1a1a"/>
  
  <!-- Journal Header -->
  <rect x="24" y="24" width="1200" height="60" rx="8" fill="#2a2a2a"/>
  <rect x="48" y="44" width="320" height="20" rx="4" fill="#3a3a3a"/>
  <rect x="1000" y="44" width="180" height="20" rx="4" fill="#3a3a3a"/>
  
  <!-- Paper Title & Authors -->
  <rect x="180" y="104" width="888" height="40" rx="4" fill="#2a2a2a"/>
  <rect x="290" y="154" width="668" height="20" rx="4" fill="#2a2a2a"/>
  <rect x="360" y="184" width="528" height="16" rx="4" fill="#3a3a3a"/>
  
  <!-- Abstract Box -->
  <rect x="180" y="220" width="888" height="100" rx="4" fill="#2a2a2a"/>
  <rect x="200" y="230" width="100" height="16" rx="4" fill="#3a3a3a"/>
  <rect x="200" y="254" width="848" height="8" rx="2" fill="#3a3a3a"/>
  <rect x="200" y="270" width="848" height="8" rx="2" fill="#3a3a3a"/>
  <rect x="200" y="286" width="848" height="8" rx="2" fill="#3a3a3a"/>
  <rect x="200" y="302" width="600" height="8" rx="2" fill="#3a3a3a"/>
  
  <!-- Two Column Layout -->
  <rect x="180" y="340" width="426" height="380" rx="4" fill="#2a2a2a"/>
  <rect x="642" y="340" width="426" height="380" rx="4" fill="#2a2a2a"/>
  
  <!-- Left Column Content -->
  <rect x="200" y="360" width="200" height="16" rx="4" fill="#3a3a3a"/>
  <rect x="200" y="384" width="386" height="8" rx="2" fill="#3a3a3a"/>
  <rect x="200" y="400" width="386" height="8" rx="2" fill="#3a3a3a"/>
  <rect x="200" y="416" width="386" height="8" rx="2" fill="#3a3a3a"/>
  <rect x="200" y="432" width="300" height="8" rx="2" fill="#3a3a3a"/>
  
  <!-- Left Column Figure -->
  <rect x="260" y="460" width="266" height="140" rx="4" fill="#3a3a3a"/>
  <circle cx="393" cy="530" r="60" fill="#4a4a4a"/>
  <rect x="220" y="610" width="346" height="8" rx="2" fill="#3a3a3a"/>
  <rect x="220" y="626" width="346" height="8" rx="2" fill="#3a3a3a"/>
  <rect x="220" y="642" width="200" height="8" rx="2" fill="#3a3a3a"/>
  
  <!-- Right Column Content -->
  <rect x="662" y="360" width="200" height="16" rx="4" fill="#3a3a3a"/>
  <rect x="662" y="384" width="386" height="8" rx="2" fill="#3a3a3a"/>
  <rect x="662" y="400" width="386" height="8" rx="2" fill="#3a3a3a"/>
  <rect x="662" y="416" width="386" height="8" rx="2" fill="#3a3a3a"/>
  <rect x="662" y="432" width="300" height="8" rx="2" fill="#3a3a3a"/>
  
  <!-- Right Column Table -->
  <rect x="662" y="460" width="386" height="140" rx="4" fill="#3a3a3a"/>
  <rect x="682" y="480" width="346" height="20" rx="2" fill="#4a4a4a"/>
  <rect x="682" y="510" width="346" height="20" rx="2" fill="#2a2a2a"/>
  <rect x="682" y="540" width="346" height="20" rx="2" fill="#2a2a2a"/>
  <rect x="682" y="570" width="346" height="20" rx="2" fill="#2a2a2a"/>
  
  <rect x="662" y="610" width="386" height="8" rx="2" fill="#3a3a3a"/>
  <rect x="662" y="626" width="386" height="8" rx="2" fill="#3a3a3a"/>
  <rect x="662" y="642" width="300" height="8" rx="2" fill="#3a3a3a"/>
  <rect x="662" y="658" width="386" height="8" rx="2" fill="#3a3a3a"/>
  <rect x="662" y="674" width="386" height="8" rx="2" fill="#3a3a3a"/>
  <rect x="662" y="690" width="250" height="8" rx="2" fill="#3a3a3a"/>
  
  <!-- References -->
  <rect x="180" y="740" width="888" height="1" fill="#3a3a3a"/>
  <rect x="180" y="750" width="100" height="16" rx="4" fill="#3a3a3a"/>
</svg> 